STARTFONT 2.1
FONT jis.jis9800.24
SIZE 24 72 72
FONTBOUNDINGBOX 24 24 0 -3
STARTPROPERTIES 4
FONT_DESCENT 3
FONT_ASCENT 21
DEFAULT_CHAR 1
COPYRIGHT "Copyright (c) 1992 AT&T - All rights reserved."
ENDPROPERTIES
CHARS 128
STARTCHAR ch-1
ENCODING 1
SWIDTH 1000 0
DWIDTH 24 0
BBX 24 24 0 -3
BITMAP
000000
000006
ffffff
001800
001000
042060
07fff0
060060
060060
060060
07ffe0
060060
060060
060060
07ffe0
060060
060060
060060
07ffe0
010000
01c180
038070
0e001c
70000c
ENDCHAR
STARTCHAR ch-2
ENCODING 2
SWIDTH 1000 0
DWIDTH 24 0
BBX 24 24 0 -3
BITMAP
000006
007fff
ffc180
0c0100
0c120c
0c1ffe
0c180c
0c180c
0c180c
0c1ffc
0c180c
0c180c
0c180c
0c1ffc
0c180c
0c180c
0c180c
0c180c
0c1ffc
7c0800
180e30
001c0c
003006
00c006
ENDCHAR
STARTCHAR ch-3
ENCODING 3
SWIDTH 1000 0
DWIDTH 24 0
BBX 24 24 0 -3
BITMAP
000006
00ffff
700180
600100
60220c
623ffe
63b00c
67300c
6c300c
703ffc
60300c
60300c
60300c
613ffc
61300c
61b00c
7fb00c
3f300c
003ffc
000800
000e30
001c0e
003007
01c003
ENDCHAR
STARTCHAR ch-5
ENCODING 5
SWIDTH 1000 0
DWIDTH 24 0
BBX 24 24 0 -3
BITMAP
000006
003fff
0180c0
ffc080
0c110c
0c1ffe
0c180c
0c180c
0c180c
0c1ffc
0c180c
0c180c
0c180c
0c1ffc
0cd80c
0f180c
fc180c
70180c
401ffc
000800
000e30
001c0c
003006
00c006
ENDCHAR
STARTCHAR ch-6
ENCODING 6
SWIDTH 1000 0
DWIDTH 24 0
BBX 24 24 0 -3
BITMAP
000006
306fff
326060
326040
32648c
3267fe
32660c
32660c
32660c
3267fc
32660c
32660c
32660c
3267fc
32660c
32660c
32660c
22660c
2267fc
606200
406390
40630e
800607
001803
ENDCHAR
STARTCHAR ch-8
ENCODING 8
SWIDTH 1000 0
DWIDTH 24 0
BBX 24 24 0 -3
BITMAP
020006
03bfff
070180
060100
0c120c
181ffe
30180c
42180c
83980c
071ffc
06180c
0c180c
18180c
201ffc
42180c
83980c
07180c
061ffc
0c0000
180820
300e18
401c0e
803007
01c003
ENDCHAR
STARTCHAR ch-12
ENCODING 12
SWIDTH 1000 0
DWIDTH 24 0
BBX 24 24 0 -3
BITMAP
000006
011fff
2100c0
390080
30850c
3087fe
30c60c
20c60c
60660c
4877fc
4e260c
8c060c
0c060c
0807fc
09060c
18860c
10c60c
10460c
13e7fc
fe6200
706398
400706
000c03
003003
ENDCHAR
STARTCHAR ch-15
ENCODING 15
SWIDTH 1000 0
DWIDTH 24 0
BBX 24 24 0 -3
BITMAP
0e0006
0c1fff
0c00c0
0cc080
ffe90c
000ffe
000c0c
230c0c
3f8c0c
330ffc
330c0c
330c0c
330c0c
330ffc
330c0c
330c0c
332c0c
234c0c
238ffc
670200
420398
800706
000c03
003003
ENDCHAR
STARTCHAR ch-16
ENCODING 16
SWIDTH 1000 0
DWIDTH 24 0
BBX 24 24 0 -3
BITMAP
00c006
7fefff
0180c0
010080
12050c
0c07fe
06060c
06060c
00660c
fff7fc
06660c
06460c
06860c
0607fc
06060c
06060c
06060c
06060c
0607fc
060200
060388
060706
3e0c03
0c3003
ENDCHAR
STARTCHAR ch-17
ENCODING 17
SWIDTH 1000 0
DWIDTH 24 0
BBX 24 24 0 -3
BITMAP
000006
00dfff
7fe0c0
000080
00090c
000ffe
006c0c
fffc0c
198c0c
198ffc
198c0c
198c0c
198c0c
198ffc
198c0c
199c0c
31ac0c
31cc0c
238ffc
610400
400730
800e0c
00180e
006006
ENDCHAR
STARTCHAR ch-18
ENCODING 18
SWIDTH 1000 0
DWIDTH 24 0
BBX 24 24 0 -3
BITMAP
108006
1c9fff
1880c0
18c080
18450c
1067fe
30360c
203e0c
40160c
80c7fc
7fe60c
0cc60c
0cc60c
0cc7fc
0cc60c
0cc60c
08c60c
18c60c
18c7fc
11c200
318398
278706
430c03
803003
ENDCHAR
STARTCHAR ch-19
ENCODING 19
SWIDTH 1000 0
DWIDTH 24 0
BBX 24 24 0 -3
BITMAP
0e0006
0c1fff
0c00c0
0cc080
0fe90c
fc0ffe
0c0c0c
0c0c0c
4c8c0c
4c8ffc
4c8c0c
4c8c0c
4c8c0c
7f8ffc
4c8c0c
4c0c0c
0c4c0c
0c4c0c
0c6ffc
0fe200
07c398
000706
000c03
003003
ENDCHAR
STARTCHAR ch-23
ENCODING 23
SWIDTH 1000 0
DWIDTH 24 0
BBX 24 24 0 -3
BITMAP
038006
030fff
030060
233040
3ff886
3337ff
332606
334606
330606
3307fe
336606
3ff606
306606
3067fe
34c606
32c606
318606
318606
2347fe
626200
446398
480706
900c03
003003
ENDCHAR
STARTCHAR ch-24
ENCODING 24
SWIDTH 1000 0
DWIDTH 24 0
BBX 24 24 0 -3
BITMAP
060006
063fff
0d00c0
0c8080
18c90c
106ffe
206c0c
5f8c0c
800c0c
000ffc
00cc0c
ffec0c
18cc0c
18cffc
18cc0c
18cc0c
18cc0c
18cc0c
1bcffc
198400
180718
180e06
181803
186003
ENDCHAR
STARTCHAR ch-26
ENCODING 26
SWIDTH 1000 0
DWIDTH 24 0
BBX 24 24 0 -3
BITMAP
000006
006fff
fff0c0
206080
10c50c
18c7fe
0d860c
07060c
07060c
0dc7fc
18f60c
30660c
c7060c
0607fc
06660c
7ff60c
06060c
06060c
0607fc
066200
0f8398
fc0706
700c03
403003
ENDCHAR
STARTCHAR ch-33
ENCODING 33
SWIDTH 1000 0
DWIDTH 24 0
BBX 24 24 0 -3
BITMAP
070006
061fff
060060
060040
06648c
fff7fe
06060c
06060c
06060c
06c7fc
7fe60c
00060c
00060c
20c7fc
3fe60c
30c60c
30c60c
30c60c
30c7fc
30c200
3fc388
30c706
300c03
003003
ENDCHAR
STARTCHAR ch-36
ENCODING 36
SWIDTH 1000 0
DWIDTH 24 0
BBX 24 24 0 -3
BITMAP
000006
406fff
7ff060
618040
618486
6187ff
65a606
65f606
646606
6467fe
646606
646606
646606
6467fe
65e606
65a606
618606
618606
6187fe
618200
7ff388
600306
600603
001803
ENDCHAR
STARTCHAR ch-44
ENCODING 44
SWIDTH 1000 0
DWIDTH 24 0
BBX 24 24 0 -3
BITMAP
070006
061fff
0600c0
066080
7ff50c
0607fe
46460c
26760c
36660c
3647fc
06860c
06360c
fffe0c
0607fc
06060c
0d060c
0c860c
08c60c
1867fc
106200
206398
400706
800c03
003003
ENDCHAR
STARTCHAR ch-45
ENCODING 45
SWIDTH 1000 0
DWIDTH 24 0
BBX 24 24 0 -3
BITMAP
000000
00c006
7fefff
0000c0
0000c0
20c48c
3fe7fe
30c60c
30c60c
30c60c
30c7fc
3fc60c
30060c
01060c
21c7fc
11860c
19060c
19060c
0267fc
038200
fe0390
78070c
400c06
003006
ENDCHAR
STARTCHAR ch-52
ENCODING 52
SWIDTH 1000 0
DWIDTH 24 0
BBX 24 24 0 -3
BITMAP
380006
30cfff
31e060
370040
380486
3047ff
306606
3fe606
1fc606
0007fe
000606
3fe606
000606
0007fe
7ff606
030606
230606
3b4606
3327fe
633200
433398
830706
0f0c07
063003
ENDCHAR
STARTCHAR ch-55
ENCODING 55
SWIDTH 1000 0
DWIDTH 24 0
BBX 24 24 0 -3
BITMAP
060006
061fff
0d0060
0cc040
18648c
1037fe
2fb60c
40060c
80c60c
3fe7fc
00c60c
01860c
01060c
0207fc
20c60c
3fe60c
30c60c
30c60c
30c7fc
30c200
3fc388
30c706
300c03
003003
ENDCHAR
STARTCHAR ch-56
ENCODING 56
SWIDTH 1000 0
DWIDTH 24 0
BBX 24 24 0 -3
BITMAP
006006
fff7ff
000060
444040
666486
6667ff
444606
888606
888606
4447fe
222606
333606
333606
0007fe
006606
fff606
060606
060606
0607fe
063200
07c388
fe0706
780c03
403003
ENDCHAR
STARTCHAR ch-59
ENCODING 59
SWIDTH 1000 0
DWIDTH 24 0
BBX 24 24 0 -3
BITMAP
038006
031fff
3b00c0
336080
33f50c
3307fe
33060c
33360c
fffe0c
0007fc
07060c
26460c
36260c
3637fc
26360c
66860c
5ee60c
8cc60c
0187fc
030200
060398
0c0706
300c03
c03003
ENDCHAR
STARTCHAR ch-60
ENCODING 60
SWIDTH 1000 0
DWIDTH 24 0
BBX 24 24 0 -3
BITMAP
070006
060fff
066060
fff040
06048c
4627fe
7ff60c
46260c
46260c
4627fc
46260c
7fe60c
46260c
4607fc
0f060c
0ec60c
1e660c
16360c
3637fc
260200
460398
860706
060c03
063003
ENDCHAR
STARTCHAR ch-61
ENCODING 61
SWIDTH 1000 0
DWIDTH 24 0
BBX 24 24 0 -3
BITMAP
00c006
07efff
7e0060
060040
06048c
0667fe
fff60c
0e060c
1f060c
16c7fc
36660c
26360c
46360c
bf87fc
31860c
31860c
31860c
31960c
31e7fc
21c200
238388
610706
400c03
803003
ENDCHAR
STARTCHAR ch-70
ENCODING 70
SWIDTH 1000 0
DWIDTH 24 0
BBX 24 24 0 -3
BITMAP
402006
7fffff
462060
462040
46248c
7fe7fe
46260c
46260c
46260c
4627fc
7fe60c
46260c
06060c
0607fc
fff60c
0e060c
1f060c
1ec60c
3667fc
266200
460388
860706
060c03
063003
ENDCHAR
STARTCHAR ch-75
ENCODING 75
SWIDTH 1000 0
DWIDTH 24 0
BBX 24 24 0 -3
BITMAP
000006
4037ff
7ff830
623020
623246
6233ff
7ff306
623306
623306
6233fe
623306
7ff306
603306
0203fe
018306
0c8306
2c3306
2c1b06
6c5bfe
6c4100
cc61c8
cfe186
07c303
000c03
ENDCHAR
STARTCHAR ch-76
ENCODING 76
SWIDTH 1000 0
DWIDTH 24 0
BBX 24 24 0 -3
BITMAP
20c006
3fefff
30c0c0
30c080
3fc48c
30c7fe
30c60c
30c60c
3fc7fc
00060c
00660c
fff7fc
06060c
26060c
36060c
3647fc
37e200
360318
36060e
2e1806
660000
43ffff
40fffe
800000
ENDCHAR
STARTCHAR ch-77
ENCODING 77
SWIDTH 1000 0
DWIDTH 24 0
BBX 24 24 0 -3
BITMAP
038006
230fff
233060
7ff840
483486
cc27ff
ccc606
1fe606
18c606
3187fe
4d8606
830606
06c606
0c67fe
183606
303606
dfc606
18c606
18c7fe
18c200
18c398
18c306
1fc607
18d803
ENDCHAR
STARTCHAR ch-78
ENCODING 78
SWIDTH 1000 0
DWIDTH 24 0
BBX 24 24 0 -3
BITMAP
492006
7defff
492060
492040
492486
4927ff
79e606
492606
000606
00c7fe
7fe606
000606
006606
fff7fe
180606
18c606
1fe606
30c606
30c7fe
00c200
01c398
018306
0f8607
031803
ENDCHAR
STARTCHAR ch-79
ENCODING 79
SWIDTH 1000 0
DWIDTH 24 0
BBX 24 24 0 -3
BITMAP
038006
0317ff
7ff830
004020
0ec246
0183ff
036306
0c2306
200306
3ffbfe
300306
304306
30e306
3183fe
364306
306306
30c306
218306
2623fe
607100
40e1c8
418386
860603
181803
ENDCHAR
STARTCHAR ch-84
ENCODING 84
SWIDTH 1000 0
DWIDTH 24 0
BBX 24 24 0 -3
BITMAP
038006
0317ff
7ff830
104020
087246
0c63ff
0c4306
208306
3ffb06
3083fe
30e306
31c306
330306
3c43fe
307306
30e306
318306
362306
203bfe
207100
60e1c8
418386
460603
981803
ENDCHAR
STARTCHAR ch-85
ENCODING 85
SWIDTH 1000 0
DWIDTH 24 0
BBX 24 24 0 -3
BITMAP
206006
3fffff
306060
306040
306486
3fe7ff
306606
306606
306606
3fe7fe
306606
000606
090606
0927fe
893e06
493606
692606
694606
6907fe
090200
09f388
ff8706
780c03
403003
ENDCHAR
STARTCHAR ch-88
ENCODING 88
SWIDTH 1000 0
DWIDTH 24 0
BBX 24 24 0 -3
BITMAP
203006
3ffbff
30c030
308020
353246
37fbff
343306
343306
343306
37f3fe
343306
343306
343306
37f3fe
318306
298306
2da306
2d9306
699bfe
499900
5199c8
918386
278603
031803
ENDCHAR
STARTCHAR ch-91
ENCODING 91
SWIDTH 1000 0
DWIDTH 24 0
BBX 24 24 0 -3
BITMAP
070006
060fff
062060
fff040
060486
0607ff
3fc606
30c606
30c606
3fc7fe
30c606
30c606
3fc606
30c7fe
30c606
3fc606
000606
002606
fff7fe
110100
1cc1c8
186386
306603
c01803
ENDCHAR
STARTCHAR ch-94
ENCODING 94
SWIDTH 1000 0
DWIDTH 24 0
BBX 24 24 0 -3
BITMAP
070006
464fff
3660c0
168080
06050c
fff7fe
0e060c
1f060c
16c60c
2667fc
46660c
86060c
00060c
0707fc
06060c
06360c
fffe0c
06060c
0d07fc
0cc200
186398
106706
200c03
c03003
ENDCHAR
STARTCHAR ch-103
ENCODING 103
SWIDTH 1000 0
DWIDTH 24 0
BBX 24 24 0 -3
BITMAP
001806
ffffff
000060
203040
3ffa86
3033ff
303306
3ff306
300306
3243fe
336306
324306
37f306
2483fe
2c8306
37f306
248306
248306
67f3fe
448100
4481c8
87f386
040603
041803
ENDCHAR
STARTCHAR ch-107
ENCODING 107
SWIDTH 1000 0
DWIDTH 24 0
BBX 24 24 0 -3
BITMAP
070006
062fff
fff060
000040
7fe48c
4027fe
4f260c
49260c
49260c
4f27fc
40260c
7fe60c
00060c
3fc7fc
20460c
20460c
3fc60c
20460c
2047fc
3fc200
000388
fff306
000603
001803
ENDCHAR
STARTCHAR ch-111
ENCODING 111
SWIDTH 1000 0
DWIDTH 24 0
BBX 24 24 0 -3
BITMAP
403006
7fffff
603060
603040
7ff246
6033ff
603306
7ff306
104306
1863fe
b2c306
410306
6db306
1863fe
104306
249306
fffb06
628b06
0003fe
292100
2499c8
648986
c48303
c00c03
ENDCHAR
STARTCHAR ch-112
ENCODING 112
SWIDTH 1000 0
DWIDTH 24 0
BBX 24 24 0 -3
BITMAP
030002
33efff
330040
3303fc
fffa04
0203fc
126204
321bfc
c6ca04
0383fc
062080
383188
c04206
0fffe2
081020
0fffe0
081020
081020
0fffe0
008000
010606
ffffff
000600
000600
ENDCHAR
STARTCHAR ch-113
ENCODING 113
SWIDTH 1000 0
DWIDTH 24 0
BBX 24 24 0 -3
BITMAP
038006
0313ff
03f830
230020
3ffd26
3209ff
33d186
3e0986
31f986
3001fe
37f186
349186
349186
37f1fe
249186
249186
27f186
600186
5ff9fe
524880
9248e8
127cc6
7fc183
3c0603
ENDCHAR
STARTCHAR ch-115
ENCODING 115
SWIDTH 1000 0
DWIDTH 24 0
BBX 24 24 0 -3
BITMAP
003006
7ffbff
084020
0fc020
084146
0841ff
0fc186
084186
087986
7fc1fe
384186
004186
fffd86
2491fe
249186
3cf186
249186
249186
3cf1fe
249080
2490c8
fff0c6
659183
041203
ENDCHAR
STARTCHAR ch-116
ENCODING 116
SWIDTH 1000 0
DWIDTH 24 0
BBX 24 24 0 -3
BITMAP
186006
1043ff
fffc20
104020
104246
7df3ff
451306
451306
7df306
0003fe
110306
199306
3ffb06
3103fe
712306
bff306
310306
312306
3ff3fe
310100
3101c8
311186
3ffb03
300403
ENDCHAR
STARTCHAR ch-168
ENCODING 168
SWIDTH 1000 0
DWIDTH 24 0
BBX 24 24 0 -3
BITMAP
100030
1ffff8
180030
180030
180330
183fb0
1bf030
183030
183030
19ff30
193130
193130
193130
193130
193130
19ff30
183012
183212
10311a
30318a
27fece
23e0c6
4200c7
800003
ENDCHAR
STARTCHAR ch-170
ENCODING 170
SWIDTH 1000 0
DWIDTH 24 0
BBX 24 24 0 -3
BITMAP
000006
ffffff
003000
003f80
0030f0
003030
003000
100030
1ffff8
180030
180630
183f30
1bf030
183030
19ff30
193130
193110
19ff12
10301a
30320a
20310e
27fe86
43e0c7
8200c3
ENDCHAR
STARTCHAR ch-175
ENCODING 175
SWIDTH 1000 0
DWIDTH 24 0
BBX 24 24 0 -3
BITMAP
0e2008
0c3ffc
0c2008
0c2048
0ca1e8
ffef08
002108
022108
43a108
232fe8
232928
232928
322928
322928
322fe8
042108
04210a
03610a
1c414a
f8412e
605fe6
408e36
008833
010003
ENDCHAR
STARTCHAR ch-177
ENCODING 177
SWIDTH 1000 0
DWIDTH 24 0
BBX 24 24 0 -3
BITMAP
200840
3ffc70
200860
204840
21e8c0
2f0884
210882
210bff
2109e3
2fe900
292800
2929fe
292986
292986
2fe986
210986
2105fe
210586
212400
211202
7ff302
4f19c3
4818ff
80003e
ENDCHAR
STARTCHAR ch-182
ENCODING 182
SWIDTH 1000 0
DWIDTH 24 0
BBX 24 24 0 -3
BITMAP
200904
3ffdfe
200904
204904
21e9fc
2f0904
210904
2109fc
210904
2fe904
2929fc
292800
292802
292fff
2fe800
210888
2104c4
210486
212506
211200
7ff302
4f19c3
4818ff
80003e
ENDCHAR
STARTCHAR ch-195
ENCODING 195
SWIDTH 1000 0
DWIDTH 24 0
BBX 24 24 0 -3
BITMAP
202006
3fffff
202090
212090
23a7fe
2e2492
222492
2227fe
2fa000
2aa3fc
2aa000
2aa002
2aafff
2aa060
2fa268
222364
221266
221462
2291e0
2248c2
7fcc02
4e6703
4863ff
8000fe
ENDCHAR
STARTCHAR ch-196
ENCODING 196
SWIDTH 1000 0
DWIDTH 24 0
BBX 24 24 0 -3
BITMAP
000808
fffffc
090808
090848
7fe8e8
492b88
492888
492888
7febe8
000aa8
000aa8
3fcaa8
000aa8
000aa8
fffbe8
060888
26088a
36888a
2648aa
6648ae
4658f6
861796
1e1203
0c2003
ENDCHAR
STARTCHAR ch-198
ENCODING 198
SWIDTH 1000 0
DWIDTH 24 0
BBX 24 24 0 -3
BITMAP
0e8808
0ccffc
0c4808
0c0848
7fe8e8
0d0b88
098888
18c888
10fbe8
206aa8
400aa8
084aa8
252aa8
252aa8
210be8
fff888
21088a
21088a
3188aa
2968ae
6b38f6
421796
421203
842003
ENDCHAR
STARTCHAR ch-219
ENCODING 219
SWIDTH 1000 0
DWIDTH 24 0
BBX 24 24 0 -3
BITMAP
000180
3fffc8
00019c
0019e0
019998
03d8cc
0f18cc
731862
031832
03181e
03198f
ffffc3
031988
03199c
0319e0
061898
0618cc
06184c
0c1862
0c1832
18181e
30180f
c01803
001800
ENDCHAR
STARTCHAR ch-220
ENCODING 220
SWIDTH 1000 0
DWIDTH 24 0
BBX 24 24 0 -3
BITMAP
00c010
07effa
7e0013
048096
24c698
349e96
150493
fff499
0c048a
1d048e
14c487
346ff3
246494
400496
bfc494
244498
244496
244493
3fc499
244c8a
24488e
244887
3fd083
204080
ENDCHAR
STARTCHAR ch-223
ENCODING 223
SWIDTH 1000 0
DWIDTH 24 0
BBX 24 24 0 -3
BITMAP
001800
001800
003400
006200
00c100
019cc0
031870
0c183f
33ff9e
c30186
030180
03ff80
030180
030180
0301a0
03ffb8
031030
030860
030480
030300
0339c0
7fc0fe
3c003c
20000c
ENDCHAR
STARTCHAR ch-226
ENCODING 226
SWIDTH 1000 0
DWIDTH 24 0
BBX 24 24 0 -3
BITMAP
030230
0303f8
068330
066330
0c3330
0bb330
1b0330
136330
3ff330
586330
986330
1fe330
186330
186330
186330
1fe330
180330
188330
186332
18b632
1b3632
7e0c33
38183f
20601e
ENDCHAR
STARTCHAR ch-233
ENCODING 233
SWIDTH 1000 0
DWIDTH 24 0
BBX 24 24 0 -3
BITMAP
0300e0
0300c0
0680c0
0660c4
0c30de
1b30f8
130fc0
3fe0c0
5860c0
986ccc
1feccc
186ccc
186ccc
186ccc
1feccc
180ffc
180ccc
1880c0
1840c0
1860c2
19b0c2
7e30c3
3800ff
20007e
ENDCHAR
STARTCHAR ch-235
ENCODING 235
SWIDTH 1000 0
DWIDTH 24 0
BBX 24 24 0 -3
BITMAP
030018
03007c
0681e0
066fc0
0c30c0
1b30c0
1300c0
3fe0c0
5860c0
9860c6
1fffff
1861a0
1861a0
1861a0
1fe1a0
180110
188310
184310
186218
19b208
1e340c
7c040f
300806
201006
ENDCHAR
STARTCHAR ch-237
ENCODING 237
SWIDTH 1000 0
DWIDTH 24 0
BBX 24 24 0 -3
BITMAP
060200
060380
0d0300
0c8300
18c606
16c7ff
260c00
4611c0
bfc180
30c180
30c18c
3fdffe
30c18c
30c18c
30c18c
3fc38c
30c30c
31030c
30830c
30c20c
33661c
fc6418
7008f8
401030
ENDCHAR
STARTCHAR ch-238
ENCODING 238
SWIDTH 1000 0
DWIDTH 24 0
BBX 24 24 0 -3
BITMAP
030100
0301c0
068180
066180
0c3180
183306
17c3ff
200206
506604
9ff4e8
1868c0
1860c0
1fe0c0
1860c0
1861a0
1fe1a0
1801a0
180130
1fe310
180218
18061c
1fe40f
18080e
183006
ENDCHAR
STARTCHAR ch-239
ENCODING 239
SWIDTH 1000 0
DWIDTH 24 0
BBX 24 24 0 -3
BITMAP
060000
060806
0d0fff
0ccc00
186c00
176c00
260c00
7fcc0c
b0cffe
30cd0c
3fcd0c
30cd0c
30cd18
30cd98
3fcc90
30ccb0
3208e0
310840
3198e0
32d0b0
fcd118
70221f
40440e
001806
ENDCHAR
STARTCHAR ch-242
ENCODING 242
SWIDTH 1000 0
DWIDTH 24 0
BBX 24 24 0 -3
BITMAP
030100
0301c0
068180
066180
0c3180
1b3306
1303ff
3fe206
586604
9864e8
1fe8c0
1860c0
1860c0
1860c0
1fe1a0
1801a0
1881a0
184130
186310
19b218
1e361c
7c040f
30080e
203006
ENDCHAR
STARTCHAR ch-244
ENCODING 244
SWIDTH 1000 0
DWIDTH 24 0
BBX 24 24 0 -3
BITMAP
060080
0600e0
0d00c0
0cc0c0
186180
176188
260104
460306
bfc21b
30dfe3
30cf03
3fc800
30c000
30c406
30c7ff
3fc606
30c606
310606
308606
30c606
336606
fc67fe
706606
400606
ENDCHAR
STARTCHAR ch-252
ENCODING 252
SWIDTH 1000 0
DWIDTH 24 0
BBX 24 24 0 -3
BITMAP
060000
060006
0d1fff
0cc006
186006
176066
261ff6
460006
bfc006
30c866
30cff6
3fcc66
30cc66
30cc66
30cc66
3fcfe6
30cc66
310c06
308006
30c006
336006
fc6006
70603e
40000c
ENDCHAR
STARTCHAR ch-253
ENCODING 253
SWIDTH 1000 0
DWIDTH 24 0
BBX 24 24 0 -3
BITMAP
060200
060380
0d0300
0cc300
18660c
1767fe
26040c
46080c
bfcfcc
30d0cc
30c0cc
3fc0cc
30c8cc
30cfcc
30cc0c
3fcc18
30ccf8
320c30
310c02
318c02
32cc02
fccc03
700fff
4007fe
ENDCHAR
STARTCHAR ch-254
ENCODING 254
SWIDTH 1000 0
DWIDTH 24 0
BBX 24 24 0 -3
BITMAP
060400
060700
0d0600
0c8600
18cc06
16cfff
2610c0
4620c0
bfc8c6
30cfff
30ccc6
3fccc6
30ccc6
30ccc6
30ccc6
3fccc6
30ccc6
310cc6
308cc6
30ccde
336ccc
fc60c0
7060c0
4000c0
ENDCHAR
STARTCHAR ch-259
ENCODING 259
SWIDTH 1000 0
DWIDTH 24 0
BBX 24 24 0 -3
BITMAP
0300e0
0300c0
0680c0
0660c6
0c3fff
1b3000
130410
3fe70c
586606
986c07
1fe823
187238
186230
186230
1fe160
180160
1880c0
1840c0
1861a0
19b130
1e3318
7c021f
30040e
201806
ENDCHAR
STARTCHAR ch-261
ENCODING 261
SWIDTH 1000 0
DWIDTH 24 0
BBX 24 24 0 -3
BITMAP
060010
06081c
0d0618
0cc330
186320
176044
261ffe
460330
bfc330
30c330
30c330
3fc332
30ffff
30c330
30c330
3fc330
30c630
310630
308630
30c430
33cc30
fcc830
701030
402030
ENDCHAR
STARTCHAR ch-265
ENCODING 265
SWIDTH 1000 0
DWIDTH 24 0
BBX 24 24 0 -3
BITMAP
030080
0300e0
0680c0
064080
0c6180
1b6906
130fff
3fcc06
58cc06
98cc06
1fcde6
18cd26
18cd26
18cd26
1fcd26
180d26
180de6
190c06
188c06
18cc06
196c06
7e6c06
380c3e
200c0c
ENDCHAR
STARTCHAR ch-266
ENCODING 266
SWIDTH 1000 0
DWIDTH 24 0
BBX 24 24 0 -3
BITMAP
010100
008180
00c318
3ffffc
001800
0ffff0
001800
001806
ffffff
018080
031840
07ffb0
0b019f
330186
c3ff80
030180
030190
03ffb8
030860
030480
030300
7ff1e0
3e007e
20001c
ENDCHAR
STARTCHAR ch-268
ENCODING 268
SWIDTH 1000 0
DWIDTH 24 0
BBX 24 24 0 -3
BITMAP
060000
060006
0d1fff
0cc618
186618
176618
260618
4607f8
bfc618
30c618
30c618
3fc618
30c618
30c7f8
30c618
3fc618
30061a
31061f
308678
30c798
337c18
fc6018
706018
400018
ENDCHAR
STARTCHAR ch-272
ENCODING 272
SWIDTH 1000 0
DWIDTH 24 0
BBX 24 24 0 -3
BITMAP
038000
03100c
03fbfe
13001c
1fe1b0
306060
68c0b0
8d9b1c
07380e
1c7406
e0e300
0198e0
07183f
1bffce
e300c0
03ffc0
0300c8
03ffce
03041c
030260
033980
7fc0ff
3c003e
20000e
ENDCHAR
STARTCHAR ch-274
ENCODING 274
SWIDTH 1000 0
DWIDTH 24 0
BBX 24 24 0 -3
BITMAP
030018
03007c
0681e0
064e04
0c6107
1b6886
1304cc
3fc6cc
58c608
98c010
1fc180
18c186
18dfff
18c318
1fc318
180618
180630
190d30
188ce0
18c070
1960d8
7e618c
380306
200c06
ENDCHAR
STARTCHAR ch-275
ENCODING 275
SWIDTH 1000 0
DWIDTH 24 0
BBX 24 24 0 -3
BITMAP
060670
060f68
0d3c64
0c8c66
18cc66
16cc60
260c60
7f8c66
b1ffff
318c60
3f8c64
318c67
318c66
318d64
3f8e2c
307c28
323c38
312c12
318c3a
32cc2a
3ccc4e
f80c86
607d07
401803
ENDCHAR
STARTCHAR ch-276
ENCODING 276
SWIDTH 1000 0
DWIDTH 24 0
BBX 24 24 0 -3
BITMAP
0600e8
0600c6
0d00c2
0cdfff
1860c0
3660c0
2610c6
7f9fff
b198c6
3198c6
3f98c6
319ffe
3198c6
3198c6
3f98c6
3018c6
301ffe
3218c6
3118c6
3198c6
36d8c6
f8d8c6
6018de
4018cc
ENDCHAR
STARTCHAR ch-280
ENCODING 280
SWIDTH 1000 0
DWIDTH 24 0
BBX 24 24 0 -3
BITMAP
0600c0
0600c0
0d01a0
0cc1a0
186310
366218
26060c
7fc40f
b0cbf6
30d0c0
3fc0c0
30c0c6
30dfff
30c0c0
3fc0c0
3008c0
310ed0
308ccc
30ccc6
33c8c7
3cd8c3
f810c3
6023c0
400180
ENDCHAR
STARTCHAR ch-285
ENCODING 285
SWIDTH 1000 0
DWIDTH 24 0
BBX 24 24 0 -3
BITMAP
060738
060630
0d0636
0cdfff
186630
366630
260000
7fc1c0
b0c180
30c186
3fdfff
30c300
30c300
30c30c
3fc3fe
30030c
31030c
30860c
30c60c
33c40c
3ccc18
f80818
6010f8
406030
ENDCHAR
STARTCHAR ch-286
ENCODING 286
SWIDTH 1000 0
DWIDTH 24 0
BBX 24 24 0 -3
BITMAP
060730
060610
0d0604
0cc23e
1863c0
367f08
260110
7fc1a2
b0c0c2
30c372
3fdc1f
30c0c7
30c640
30c61e
3fc3e0
301e00
310318
308110
30c1a0
33c0c2
3cc162
f8023a
600c1f
403007
ENDCHAR
STARTCHAR ch-288
ENCODING 288
SWIDTH 1000 0
DWIDTH 24 0
BBX 24 24 0 -3
BITMAP
060208
06038e
0d030c
0c8208
18c618
36c492
261fff
7f8618
b18618
318618
3f8618
318698
31871a
318e7f
3fbe18
301618
300618
320618
310618
318418
378c18
f98818
601018
402018
ENDCHAR
STARTCHAR ch-289
ENCODING 289
SWIDTH 1000 0
DWIDTH 24 0
BBX 24 24 0 -3
BITMAP
060100
0601c0
0d0180
0cc186
1863ff
366306
260206
7fc60e
b0c40c
30c87c
3fc018
30c000
30c080
30c9c6
3fcf1f
300c06
300c06
310c06
308f1e
30cc06
33cc06
fccc06
700ffe
400c06
ENDCHAR
STARTCHAR ch-292
ENCODING 292
SWIDTH 1000 0
DWIDTH 24 0
BBX 24 24 0 -3
BITMAP
0600e0
0600c4
0d04c6
0cc4cc
1864c8
366cc0
260cc0
7fc1a0
b0c198
30c30c
3fc606
30c806
30c0e0
30c0c4
3fc4c6
3004cc
300cc8
3118c0
3099a0
30c190
33c318
fcc20c
70040f
401806
ENDCHAR
STARTCHAR ch-296
ENCODING 296
SWIDTH 1000 0
DWIDTH 24 0
BBX 24 24 0 -3
BITMAP
0600e0
0600c0
0d08c0
0c88c6
18cfff
16d806
263004
463418
bfc7fc
30c618
30c618
3fc618
30c7f8
30c600
30c600
3fc60c
30c7fe
31060c
30860c
30c60c
33660c
fc660c
7067fc
40060c
ENDCHAR
STARTCHAR ch-300
ENCODING 300
SWIDTH 1000 0
DWIDTH 24 0
BBX 24 24 0 -3
BITMAP
060e46
060c7f
0d0c46
0c8c46
18cd46
36ffc6
260c46
7f8c7e
b18c46
318c46
3f8c46
318c46
31be46
31a27e
3fa246
302246
302246
3222c6
3122c6
31be86
37a286
f98186
60011e
40020c
ENDCHAR
STARTCHAR ch-302
ENCODING 302
SWIDTH 1000 0
DWIDTH 24 0
BBX 24 24 0 -3
BITMAP
000180
003180
7ffb40
060220
0c0430
0fe89c
18710f
34c626
458040
031988
0c3410
706320
01d8c0
07183f
1bffce
e300c0
03ffc0
0300c8
03ffce
03041c
030260
033980
7fc07f
3c001e
ENDCHAR
STARTCHAR ch-317
ENCODING 317
SWIDTH 1000 0
DWIDTH 24 0
BBX 24 24 0 -3
BITMAP
060080
0600e0
0d00c0
0cc906
186fff
366c46
260c46
7fcc46
b0cffe
30cc46
3fcc46
30cc46
30cffe
30c060
3fc468
30076c
300668
31066a
30867f
30c469
33cc62
fcc863
70107f
40203e
ENDCHAR
STARTCHAR ch-318
ENCODING 318
SWIDTH 1000 0
DWIDTH 24 0
BBX 24 24 0 -3
BITMAP
060100
060b86
0d0e7f
0ccc26
186c26
366c26
260c26
7fcd26
b0cda6
30cea6
3ffc7e
30d84c
30c080
30c000
3fcffe
300c46
300c46
310c46
308ffe
30cc46
33cc46
fccc46
700ffe
400c06
ENDCHAR
STARTCHAR ch-322
ENCODING 322
SWIDTH 1000 0
DWIDTH 24 0
BBX 24 24 0 -3
BITMAP
060000
060418
0d07fc
0cc618
186618
366618
2607f8
7fc618
b0c618
30c618
3fc7f8
30c618
30c000
30c804
3fcffe
300924
300924
310924
308924
30c924
33c924
fcc924
703fff
400000
ENDCHAR
STARTCHAR ch-325
ENCODING 325
SWIDTH 1000 0
DWIDTH 24 0
BBX 24 24 0 -3
BITMAP
060418
0607fc
0d0618
0cc618
1867f8
366618
260618
7fc7f8
b0c000
30dffe
3fd222
30d222
30dffe
30c000
3fc00c
301ffe
30040c
310218
308330
30c1e0
33c0e0
fcc1b8
70061f
403806
ENDCHAR
STARTCHAR ch-329
ENCODING 329
SWIDTH 1000 0
DWIDTH 24 0
BBX 24 24 0 -3
BITMAP
0603b8
060330
0d0332
0cdfff
186330
366330
260000
7fcffc
b0c8c4
30c8c4
3fc8c4
30cffc
30c0c0
30c0c0
3fc0c4
300ffe
3000c0
3100c4
308ffe
30c0c0
33c0c0
fcc0c2
701fff
400000
ENDCHAR
STARTCHAR ch-331
ENCODING 331
SWIDTH 1000 0
DWIDTH 24 0
BBX 24 24 0 -3
BITMAP
0600e0
0600c0
0d0ffc
0cc8c4
1868c4
366ffc
2600c0
7fc0c2
b0ffff
30c000
3fcffc
30cc0c
30cc0c
30cffc
3fcc0c
300c0c
300ffc
310c0c
308c0c
30cffc
33c400
fcc718
700e0e
403006
ENDCHAR
STARTCHAR ch-332
ENCODING 332
SWIDTH 1000 0
DWIDTH 24 0
BBX 24 24 0 -3
BITMAP
060204
063f7e
0d0204
0c8204
18de3c
36d020
261122
7f9122
b19fbf
318f1e
3f8000
318618
318618
319ffe
3f8618
300618
300618
323fff
310000
318420
378718
f9860c
600c0e
403006
ENDCHAR
STARTCHAR ch-336
ENCODING 336
SWIDTH 1000 0
DWIDTH 24 0
BBX 24 24 0 -3
BITMAP
0600e0
0600c0
0d1ffe
0c80c0
18c0c0
36cffc
260000
7f9002
b19fff
31b006
3fb7f4
318000
318000
318ff8
3f8808
300808
300ff8
310000
30880c
30c618
33c210
fcc026
703fff
400000
ENDCHAR
STARTCHAR ch-337
ENCODING 337
SWIDTH 1000 0
DWIDTH 24 0
BBX 24 24 0 -3
BITMAP
0608c4
060c86
0d28ac
0c9090
18da9a
36ca8a
260484
7f8888
b18892
3192bf
3fbe91
319280
31808c
319084
3f9fff
301840
301844
321c66
311b2c
319138
379012
f9b03a
6020cf
404303
ENDCHAR
STARTCHAR ch-338
ENCODING 338
SWIDTH 1000 0
DWIDTH 24 0
BBX 24 24 0 -3
BITMAP
0600e0
0600c8
0d0ffc
0c80c0
18c0c4
36dffe
260000
7f860c
b18408
319f3e
3f8408
318408
31870a
31bc7f
3f9000
300000
311ffe
308630
30c630
33c632
3ccc32
f80c33
60183f
40601e
ENDCHAR
STARTCHAR ch-341
ENCODING 341
SWIDTH 1000 0
DWIDTH 24 0
BBX 24 24 0 -3
BITMAP
0000c0
3f80fc
2088c0
208fff
3f8c83
000ce2
ffef88
100878
3f1800
011130
032132
1e1b33
0c361f
00e1c0
038c7f
1fffce
e300c0
03ffc0
0300c8
03ffdc
030830
030780
7ff0ff
3c001e
ENDCHAR
STARTCHAR ch-343
ENCODING 343
SWIDTH 1000 0
DWIDTH 24 0
BBX 24 24 0 -3
BITMAP
0c4246
0e7f7f
504266
247e66
374264
067e68
084464
124262
ff4f63
66f363
0c606f
301866
c03c00
00e300
0398e0
1dffbf
e1008e
01ff80
010098
01ff9c
010c30
0103c0
3ff878
0f0018
ENDCHAR
STARTCHAR ch-406
ENCODING 406
SWIDTH 1000 0
DWIDTH 24 0
BBX 24 24 0 -3
BITMAP
040080
0300e0
0180c0
018180
000206
ffffff
003000
002000
084030
0ffff8
0c0030
0c0030
0c0030
0ffff0
0c0030
0c0030
0c0030
0ffff0
0c0030
0c0030
0c0030
0ffff0
0c0030
0c0030
ENDCHAR
STARTCHAR ch-407
ENCODING 407
SWIDTH 1000 0
DWIDTH 24 0
BBX 24 24 0 -3
BITMAP
1c1010
180c38
180420
180044
183ffe
198180
ffc100
198a18
198ffc
198c18
198c18
198ff8
198c18
198c18
198ff8
198c18
398c18
318ffa
318c1a
318002
218003
61ffff
40fffe
800000
ENDCHAR
STARTCHAR ch-408
ENCODING 408
SWIDTH 1000 0
DWIDTH 24 0
BBX 24 24 0 -3
BITMAP
4080e8
20c0c4
3180c6
1100c6
0200c0
ffc0c6
0c3fff
0800c0
5180c0
7fdec4
619247
619246
619266
7f926c
61922c
619e28
618038
7f8110
61823a
618c6a
61b84e
619086
7f8107
618203
ENDCHAR
STARTCHAR ch-409
ENCODING 409
SWIDTH 1000 0
DWIDTH 24 0
BBX 24 24 0 -3
BITMAP
000030
0001f8
001fc0
3ff800
001800
001800
001806
ffffff
007a00
00d900
01d8c0
039878
0e183f
38181e
c7ffe6
060060
060060
060060
07ffe0
060060
060060
060060
07ffe0
060060
ENDCHAR
STARTCHAR ch-421
ENCODING 421
SWIDTH 1000 0
DWIDTH 24 0
BBX 24 24 0 -3
BITMAP
018400
03c700
0e0606
760fff
060800
061000
ffe7fc
0e060c
1f060c
16c7fc
36660c
26660c
4607fc
800180
3fc30c
30c3fe
30c60c
30cd18
3fd0b0
30c060
30c0f0
30c19f
3fc60e
30d806
ENDCHAR
STARTCHAR ch-424
ENCODING 424
SWIDTH 1000 0
DWIDTH 24 0
BBX 24 24 0 -3
BITMAP
060230
fff3f8
060330
06033f
7fe61f
000800
3fe3f8
326130
3260e0
3fe1b8
200e1f
600006
400f80
87ffc0
001806
ffffff
031880
061860
1fffff
e6006e
07ffe0
060060
07ffe0
060060
ENDCHAR
STARTCHAR ch-428
ENCODING 428
SWIDTH 1000 0
DWIDTH 24 0
BBX 24 24 0 -3
BITMAP
000000
080030
0ffff8
0c1800
0c1800
0c1860
0ffff0
0c1800
0c1800
0c1860
0ffff0
0c1800
0c1800
0c180c
0ffffe
0c000c
00020c
12210c
11118c
31999c
619818
e18038
c001f0
000060
ENDCHAR
STARTCHAR ch-429
ENCODING 429
SWIDTH 1000 0
DWIDTH 24 0
BBX 24 24 0 -3
BITMAP
406000
7ff00c
620ffe
62020c
62020c
7fe20c
62020c
620218
620118
7fe118
620110
620190
6260b0
7ff0a0
6060e0
006040
5560e0
5560a0
5061b0
c06118
c0e31c
00c20f
07c40e
019806
ENDCHAR
STARTCHAR ch-430
ENCODING 430
SWIDTH 1000 0
DWIDTH 24 0
BBX 24 24 0 -3
BITMAP
00400c
407ffe
306180
186180
1c6198
0c7ffc
0c6180
006180
006198
007ffc
026180
046180
086186
187fff
306006
f00046
700126
304936
304996
308d86
398c0e
19800c
00007c
000018
ENDCHAR
STARTCHAR ch-435
ENCODING 435
SWIDTH 1000 0
DWIDTH 24 0
BBX 24 24 0 -3
BITMAP
40c0e0
7fe0c0
620ec0
620cc0
620ccc
7fccce
620cfc
620ccc
620fcc
7fcccc
623ccc
620ccc
62cccc
7feccc
604ccc
004cfc
014cd8
554cc0
544c02
50cc02
c0cc03
c18fff
0f87fe
030000
ENDCHAR
STARTCHAR ch-436
ENCODING 436
SWIDTH 1000 0
DWIDTH 24 0
BBX 24 24 0 -3
BITMAP
206707
3ff676
310666
310666
310666
3fe666
310666
310666
310666
3fe666
310666
310666
310666
316666
3ff666
306666
016666
556666
556666
d46466
d0cc66
c0c866
07c806
019006
ENDCHAR
STARTCHAR ch-444
ENCODING 444
SWIDTH 1000 0
DWIDTH 24 0
BBX 24 24 0 -3
BITMAP
4060e0
7ff0c0
6200c0
6200c0
6200c6
7fefff
620210
62021c
620218
7fe318
620118
620110
626130
7ff1b0
6060a0
0060e0
556040
5560e0
5060a0
c061b0
c0e118
00c21f
07c40e
019806
ENDCHAR
STARTCHAR ch-449
ENCODING 449
SWIDTH 1000 0
DWIDTH 24 0
BBX 24 24 0 -3
BITMAP
40c010
7fe01c
620618
6201b0
6200e0
7fc070
6200d8
62018c
62030e
7fc606
621810
62021c
626218
7ff118
606130
0060b0
5560e0
556040
5060e0
c0e1b0
c0c318
01c61f
0f8c0e
033006
ENDCHAR
STARTCHAR ch-452
ENCODING 452
SWIDTH 1000 0
DWIDTH 24 0
BBX 24 24 0 -3
BITMAP
4061c0
7ff180
620180
620180
620180
7fc180
620180
620186
621fff
7fc180
620180
620180
626340
7ff340
606340
006320
556220
556630
506610
c0e518
c0cc9c
01c8cf
0f90ce
032006
ENDCHAR
STARTCHAR ch-453
ENCODING 453
SWIDTH 1000 0
DWIDTH 24 0
BBX 24 24 0 -3
BITMAP
406406
7ff7ff
630606
630606
630606
7fe606
630606
630606
630606
7fe7fe
630646
630640
636640
7ff640
606620
006620
556620
556630
506c10
c0ec18
c0cc1c
01c80f
0f980e
032006
ENDCHAR
STARTCHAR ch-454
ENCODING 454
SWIDTH 1000 0
DWIDTH 24 0
BBX 24 24 0 -3
BITMAP
40c000
7fe806
620fff
620c00
620c08
7fcc0e
620d0c
620c8c
620c58
7fcc58
620c30
620c30
62cc28
7fec6c
604c44
004cc6
554c86
554d06
504e00
c0cc00
c0cc06
018fff
0f8c00
030c00
ENDCHAR
STARTCHAR ch-456
ENCODING 456
SWIDTH 1000 0
DWIDTH 24 0
BBX 24 24 0 -3
BITMAP
406018
7ff03c
6204e0
620700
620600
7fe600
620600
620600
62060c
7fe7fe
620630
620630
626630
7ff630
606630
006630
556630
556630
506630
c06630
c0e630
00c632
07dfff
018000
ENDCHAR
STARTCHAR ch-464
ENCODING 464
SWIDTH 1000 0
DWIDTH 24 0
BBX 24 24 0 -3
BITMAP
406200
7ff180
6300c0
6300c0
630000
7fe00c
630ffe
6300c0
6300c0
7fe0c0
6300c0
6300c0
6360cc
7feffe
6060c0
0060c0
5560c0
5560c0
5060c0
d0e0c0
c0c0c0
01c0c6
0fbfff
030000
ENDCHAR
STARTCHAR ch-465
ENCODING 465
SWIDTH 1000 0
DWIDTH 24 0
BBX 24 24 0 -3
BITMAP
038000
03000c
0637fe
fffa0c
0c3118
1860b0
37c060
01f0f8
07319f
1c0606
e00000
07fff0
060800
07ffe0
060800
07ffe0
060800
06080c
07fffe
10020c
12218c
319998
619878
600030
ENDCHAR
STARTCHAR ch-466
ENCODING 466
SWIDTH 1000 0
DWIDTH 24 0
BBX 24 24 0 -3
BITMAP
406200
7ff380
620300
620300
620606
7fc7ff
620c06
620806
621466
7fc7f6
620666
620666
626666
7ff666
606666
006666
5567e6
556666
506606
c06006
c0e00e
00c00c
07c07c
018018
ENDCHAR
STARTCHAR ch-469
ENCODING 469
SWIDTH 1000 0
DWIDTH 24 0
BBX 24 24 0 -3
BITMAP
070000
063206
fffbff
063306
063306
0c3306
0df3fe
186306
300000
c7fffc
060c00
060c00
07fff8
060c00
060c00
07fff8
060c00
060c06
07ffff
122206
111186
21998c
61987c
600018
ENDCHAR
STARTCHAR ch-472
ENCODING 472
SWIDTH 1000 0
DWIDTH 24 0
BBX 24 24 0 -3
BITMAP
406080
7ff0e0
6200c0
6200c0
620180
7fe188
620104
620306
62023b
7fefe3
620703
620400
626000
7ff20c
6063fe
00630c
55630c
55630c
50630c
c0630c
c0e30c
00c3fc
07c30c
01830c
ENDCHAR
STARTCHAR ch-475
ENCODING 475
SWIDTH 1000 0
DWIDTH 24 0
BBX 24 24 0 -3
BITMAP
406070
7ff060
620060
620462
6207ff
7fe462
620462
620462
620462
7fe462
620462
6207fe
626462
7ff060
606260
006140
5560c0
556040
5060e0
c060b0
c0e198
00c11f
07c20e
018c06
ENDCHAR
STARTCHAR ch-477
ENCODING 477
SWIDTH 1000 0
DWIDTH 24 0
BBX 24 24 0 -3
BITMAP
4060e0
7ff0c0
6200c0
6208c0
6208c6
7fefff
621806
621804
620000
7fe380
620308
62030e
62631c
7ff338
606360
006380
556300
556300
506300
c06304
c0e304
00c306
07c3fe
0181fc
ENDCHAR
STARTCHAR ch-479
ENCODING 479
SWIDTH 1000 0
DWIDTH 24 0
BBX 24 24 0 -3
BITMAP
418000
7fd006
641fff
641926
641926
7f9926
641926
641926
641926
7f9926
641926
641926
659926
7fd926
619b3e
019a1e
559a06
559c06
519806
c19806
c39806
031ffe
1f1806
060000
ENDCHAR
STARTCHAR ch-482
ENCODING 482
SWIDTH 1000 0
DWIDTH 24 0
BBX 24 24 0 -3
BITMAP
406408
7ff30e
62018c
620198
620010
7fe020
620ffe
620318
620318
7fe318
620318
62031a
621fff
7fe318
606318
006318
556318
556318
506318
c06618
c0e618
00c418
07c818
019018
ENDCHAR
STARTCHAR ch-493
ENCODING 493
SWIDTH 1000 0
DWIDTH 24 0
BBX 24 24 0 -3
BITMAP
4060e0
7ff0c0
6200c0
6200c6
620fff
7fe080
6200e0
6200c0
620990
7fe61c
620338
620330
626060
7ff0c0
606188
00630e
556c1c
556018
506030
c06060
c0e0d0
00c18c
07c307
018c03
ENDCHAR
STARTCHAR ch-494
ENCODING 494
SWIDTH 1000 0
DWIDTH 24 0
BBX 24 24 0 -3
BITMAP
4060e0
7ff0c0
6200c0
6200c6
621fff
7fe000
620210
62030c
620606
7fe406
620810
62021c
626218
7ff118
606130
0060b0
5560e0
556040
5060e0
c060b0
c0e118
00c21f
07c40e
019806
ENDCHAR
STARTCHAR ch-497
ENCODING 497
SWIDTH 1000 0
DWIDTH 24 0
BBX 24 24 0 -3
BITMAP
406100
7ff1c0
620180
62018c
6201fe
7fe30c
62021c
620518
6208b0
7fe0e0
620040
6200e0
6261b8
7ff31f
606c06
006000
5567fc
55660c
50660c
c0660c
c0e60c
00c60c
07c7fc
01860c
ENDCHAR
STARTCHAR ch-498
ENCODING 498
SWIDTH 1000 0
DWIDTH 24 0
BBX 24 24 0 -3
BITMAP
40c303
7fe232
620222
620222
620222
7fc222
620222
620222
620a22
7fcaaa
620aaa
621aaa
625aaa
7fdaaa
604222
004222
554222
554622
504422
c0c422
c0cc22
018822
0f9022
032002
ENDCHAR
STARTCHAR ch-504
ENCODING 504
SWIDTH 1000 0
DWIDTH 24 0
BBX 24 24 0 -3
BITMAP
40600c
7ff7fe
62000c
62000c
6207fc
7fe00c
62000c
6207fc
620000
7fe806
620fff
621806
621804
7fe7fc
60620c
006318
556118
5561b0
5060e0
c060e0
c0e1b0
00c31f
07c60e
019806
ENDCHAR
STARTCHAR ch-507
ENCODING 507
SWIDTH 1000 0
DWIDTH 24 0
BBX 24 24 0 -3
BITMAP
406418
7ff7fc
620618
620618
620618
7fe7f8
620618
620618
620618
7fe7f8
620000
62000c
626ffe
7fe0c0
6060c0
0060c6
557fff
5560c0
5060c0
c060c0
c0e0c0
00c0c0
07c0c0
0180c0
ENDCHAR
STARTCHAR ch-511
ENCODING 511
SWIDTH 1000 0
DWIDTH 24 0
BBX 24 24 0 -3
BITMAP
40c200
7fe380
620310
620208
62040c
7fbff6
621e06
621430
620730
7f8630
620c3f
621a1f
622380
7fc318
6043fc
014618
554418
554a30
545160
d0c1c0
c0c370
01863f
0f8c1e
033006
ENDCHAR
ENDFONT
